<svg width="182" height="56" viewBox="0 0 182 56" fill="none" xmlns="http://www.w3.org/2000/svg">
<path d="M48.6 29.5C48.4 29.4 47.1 28.8 46.9 28.7C46.7 28.6 46.5 28.6 46.3 28.8C46.1 29 45.7 29.6 45.5 29.8C45.4 30 45.2 30 45 29.9C44.3 29.6 43.6 29.2 43 28.7C42.5 28.2 42 27.6 41.6 27C41.5 26.8 41.6 26.6 41.7 26.5C41.8 26.4 41.9 26.2 42.1 26.1C42.2 26 42.3 25.8 42.3 25.7C42.4 25.6 42.4 25.4 42.3 25.3C42.2 25.2 41.7 24 41.5 23.5C41.4 22.8 41.2 22.8 41 22.8C40.9 22.8 40.7 22.8 40.5 22.8C40.3 22.8 40 23 39.9 23.1C39.3 23.7 39 24.4 39 25.2C39.1 26.1 39.4 27 40 27.8C41.1 29.4 42.5 30.7 44.2 31.5C44.7 31.7 45.1 31.9 45.6 32C46.1 32.2 46.6 32.2 47.2 32.1C47.9 32 48.5 31.5 48.9 30.9C49.1 30.5 49.1 30.1 49 29.7C49 29.7 48.8 29.6 48.6 29.5ZM51.1 20.4C47.2 16.5 40.9 16.5 37 20.4C33.8 23.6 33.2 28.5 35.4 32.4L34 37.5L39.3 36.1C40.8 36.9 42.4 37.3 44 37.3C49.5 37.3 53.9 32.9 53.9 27.4C54 24.8 52.9 22.3 51.1 20.4ZM48.4 34.4C47.1 35.2 45.6 35.7 44 35.7C42.5 35.7 41.1 35.3 39.8 34.6L39.5 34.4L36.4 35.2L37.2 32.2L37 31.9C34.6 27.9 35.8 22.9 39.7 20.4C43.6 17.9 48.6 19.2 51 23C53.4 26.9 52.3 32 48.4 34.4Z" fill="#F9F9F9"/>
<path d="M72.7656 23.0859C72.1354 23.0859 71.5677 23.1953 71.0625 23.4141C70.5625 23.6276 70.1354 23.9401 69.7812 24.3516C69.4323 24.7578 69.1641 25.25 68.9766 25.8281C68.7891 26.4062 68.6953 27.0573 68.6953 27.7812C68.6953 28.7396 68.8438 29.5729 69.1406 30.2812C69.4427 30.9844 69.8906 31.5286 70.4844 31.9141C71.0833 32.2995 71.8307 32.4922 72.7266 32.4922C73.237 32.4922 73.7161 32.4505 74.1641 32.3672C74.6172 32.2786 75.0573 32.1693 75.4844 32.0391V33.1953C75.0677 33.3516 74.6302 33.4661 74.1719 33.5391C73.7135 33.6172 73.1693 33.6562 72.5391 33.6562C71.3776 33.6562 70.4062 33.4167 69.625 32.9375C68.849 32.4531 68.2656 31.7708 67.875 30.8906C67.4896 30.0104 67.2969 28.9714 67.2969 27.7734C67.2969 26.9089 67.4167 26.1198 67.6562 25.4062C67.901 24.6875 68.2552 24.0677 68.7188 23.5469C69.1875 23.026 69.7604 22.625 70.4375 22.3438C71.1198 22.0573 71.901 21.9141 72.7812 21.9141C73.3594 21.9141 73.9167 21.9714 74.4531 22.0859C74.9896 22.2005 75.474 22.3646 75.9062 22.5781L75.375 23.7031C75.0104 23.5365 74.6094 23.3932 74.1719 23.2734C73.7396 23.1484 73.2708 23.0859 72.7656 23.0859ZM87.8672 27.7734C87.8672 28.6536 87.7552 29.4557 87.5312 30.1797C87.3073 30.8984 86.974 31.5182 86.5312 32.0391C86.0938 32.5547 85.5495 32.9531 84.8984 33.2344C84.2474 33.5156 83.4922 33.6562 82.6328 33.6562C81.7474 33.6562 80.974 33.5156 80.3125 33.2344C79.6562 32.9531 79.1094 32.5521 78.6719 32.0312C78.2396 31.5104 77.9141 30.888 77.6953 30.1641C77.4818 29.4401 77.375 28.638 77.375 27.7578C77.375 26.5911 77.5677 25.5677 77.9531 24.6875C78.3385 23.8073 78.9219 23.1224 79.7031 22.6328C80.4896 22.1432 81.474 21.8984 82.6562 21.8984C83.7865 21.8984 84.737 22.1406 85.5078 22.625C86.2839 23.1094 86.8698 23.7917 87.2656 24.6719C87.6667 25.5469 87.8672 26.5807 87.8672 27.7734ZM78.7734 27.7734C78.7734 28.7422 78.9115 29.5807 79.1875 30.2891C79.4635 30.9974 79.8854 31.5443 80.4531 31.9297C81.026 32.3151 81.7526 32.5078 82.6328 32.5078C83.5182 32.5078 84.2422 32.3151 84.8047 31.9297C85.3724 31.5443 85.7917 30.9974 86.0625 30.2891C86.3333 29.5807 86.4688 28.7422 86.4688 27.7734C86.4688 26.2995 86.1589 25.1484 85.5391 24.3203C84.9245 23.487 83.9635 23.0703 82.6562 23.0703C81.7708 23.0703 81.0417 23.2604 80.4688 23.6406C79.8958 24.0208 79.4688 24.5625 79.1875 25.2656C78.9115 25.9635 78.7734 26.7995 78.7734 27.7734ZM95.4375 33.5L91.6016 23.3906H91.5391C91.5599 23.6042 91.5781 23.8646 91.5938 24.1719C91.6094 24.4792 91.6224 24.8151 91.6328 25.1797C91.6432 25.5391 91.6484 25.9062 91.6484 26.2812V33.5H90.4141V22.0781H92.3828L96 31.5781H96.0547L99.7266 22.0781H101.68V33.5H100.367V26.1875C100.367 25.849 100.372 25.5104 100.383 25.1719C100.393 24.8281 100.406 24.5052 100.422 24.2031C100.438 23.8958 100.453 23.6302 100.469 23.4062H100.406L96.5234 33.5H95.4375ZM111.164 33.5H104.805V22.0781H111.164V23.25H106.133V26.9453H110.875V28.1016H106.133V32.3281H111.164V33.5ZM118.578 23.0859C117.948 23.0859 117.38 23.1953 116.875 23.4141C116.375 23.6276 115.948 23.9401 115.594 24.3516C115.245 24.7578 114.977 25.25 114.789 25.8281C114.602 26.4062 114.508 27.0573 114.508 27.7812C114.508 28.7396 114.656 29.5729 114.953 30.2812C115.255 30.9844 115.703 31.5286 116.297 31.9141C116.896 32.2995 117.643 32.4922 118.539 32.4922C119.049 32.4922 119.529 32.4505 119.977 32.3672C120.43 32.2786 120.87 32.1693 121.297 32.0391V33.1953C120.88 33.3516 120.443 33.4661 119.984 33.5391C119.526 33.6172 118.982 33.6562 118.352 33.6562C117.19 33.6562 116.219 33.4167 115.438 32.9375C114.661 32.4531 114.078 31.7708 113.688 30.8906C113.302 30.0104 113.109 28.9714 113.109 27.7734C113.109 26.9089 113.229 26.1198 113.469 25.4062C113.714 24.6875 114.068 24.0677 114.531 23.5469C115 23.026 115.573 22.625 116.25 22.3438C116.932 22.0573 117.714 21.9141 118.594 21.9141C119.172 21.9141 119.729 21.9714 120.266 22.0859C120.802 22.2005 121.286 22.3646 121.719 22.5781L121.188 23.7031C120.823 23.5365 120.422 23.3932 119.984 23.2734C119.552 23.1484 119.083 23.0859 118.578 23.0859ZM130.133 33.5H123.773V22.0781H130.133V23.25H125.102V26.9453H129.844V28.1016H125.102V32.3281H130.133V33.5ZM135.172 36.5078C134.911 36.5078 134.682 36.4896 134.484 36.4531C134.286 36.4167 134.117 36.3672 133.977 36.3047V35.1719C134.143 35.224 134.323 35.263 134.516 35.2891C134.708 35.3203 134.917 35.3359 135.141 35.3359C135.432 35.3359 135.701 35.2786 135.945 35.1641C136.19 35.0495 136.385 34.8542 136.531 34.5781C136.677 34.3021 136.75 33.9219 136.75 33.4375V22.0781H138.086V33.3359C138.086 34.0495 137.966 34.6406 137.727 35.1094C137.492 35.5781 137.156 35.9271 136.719 36.1562C136.286 36.3906 135.771 36.5078 135.172 36.5078ZM148.281 33.5L146.875 29.875H142.297L140.898 33.5H139.555L144.023 22.0312H145.219L149.656 33.5H148.281ZM146.477 28.6953L145.141 25.0938C145.109 25 145.057 24.8464 144.984 24.6328C144.917 24.4193 144.846 24.1979 144.773 23.9688C144.701 23.7396 144.641 23.5547 144.594 23.4141C144.542 23.6276 144.484 23.8411 144.422 24.0547C144.365 24.263 144.307 24.4583 144.25 24.6406C144.193 24.8177 144.143 24.9688 144.102 25.0938L142.742 28.6953H146.477ZM146.859 18.375V18.5312C146.755 18.6823 146.612 18.8646 146.43 19.0781C146.253 19.2865 146.055 19.5078 145.836 19.7422C145.617 19.9714 145.396 20.1901 145.172 20.3984C144.953 20.6068 144.75 20.7865 144.562 20.9375H143.695V20.75C143.862 20.5521 144.044 20.3151 144.242 20.0391C144.44 19.7578 144.633 19.4714 144.82 19.1797C145.008 18.8828 145.164 18.6146 145.289 18.375H146.859Z" fill="#F9F9F9"/>
</svg>
